<svg width="222" height="32" viewBox="0 0 222 32" fill="none" xmlns="http://www.w3.org/2000/svg">
<path d="M46.5587 23.1045C46.4075 23.2306 46.1238 23.4007 45.7078 23.615C45.3045 23.8293 44.8065 24.0184 44.214 24.1823C43.6216 24.3462 42.9661 24.4218 42.2475 24.4092C41.1508 24.384 40.1675 24.1886 39.2977 23.823C38.4405 23.4449 37.7094 22.9343 37.1043 22.2914C36.5118 21.6485 36.058 20.9111 35.7429 20.0791C35.4277 19.2471 35.2702 18.3584 35.2702 17.4129C35.2702 16.0011 35.5538 14.7531 36.121 13.669C36.6883 12.5849 37.4762 11.734 38.4847 11.1163C39.5057 10.4986 40.6907 10.1897 42.0395 10.1897C42.9724 10.1897 43.798 10.3158 44.5166 10.5679C45.2351 10.82 45.8213 11.0911 46.2751 11.381L45.1973 13.9715C44.8822 13.732 44.4599 13.4862 43.9304 13.2341C43.4136 12.9693 42.8148 12.837 42.1341 12.837C41.4281 12.837 40.7663 13.0324 40.1486 13.4232C39.5436 13.8139 39.0519 14.3434 38.6737 15.0115C38.3082 15.667 38.1254 16.4171 38.1254 17.2617C38.1254 18.1567 38.2956 18.9445 38.6359 19.6253C38.9763 20.2934 39.4616 20.8165 40.0919 21.1947C40.7222 21.5729 41.4597 21.762 42.3042 21.762C43.048 21.762 43.6846 21.6422 44.214 21.4027C44.7435 21.1632 45.1469 20.9111 45.4242 20.6463L46.5587 23.1045ZM53.5222 10.341C55.2745 10.341 56.617 10.7696 57.5498 11.6268C58.4953 12.4714 58.968 13.6059 58.968 15.0304C58.968 15.8246 58.7978 16.6061 58.4574 17.3751C58.1297 18.1441 57.5687 18.7555 56.7746 19.2093L60.008 24.2579H56.8124L53.8815 19.8333H52.0473V24.2579H49.3056V10.341H53.5222ZM53.995 17.186C54.5496 17.186 54.9782 17.0726 55.2808 16.8457C55.5959 16.6061 55.8165 16.3288 55.9426 16.0137C56.0686 15.6859 56.1317 15.3897 56.1317 15.125C56.1317 14.9737 56.1064 14.7846 56.056 14.5577C56.0182 14.3182 55.93 14.0787 55.7913 13.8391C55.6526 13.5996 55.4383 13.3979 55.1484 13.2341C54.8711 13.0702 54.4929 12.9882 54.0139 12.9882H52.0473V17.186H53.995ZM62.2685 24.2579V10.341H66.4284C67.8277 10.341 69.0189 10.549 70.0022 10.965C70.9855 11.381 71.7733 11.9357 72.3658 12.629C72.9709 13.3223 73.4121 14.0976 73.6894 14.9548C73.9668 15.812 74.1054 16.6755 74.1054 17.5453C74.1054 18.579 73.9163 19.5118 73.5382 20.3438C73.1726 21.1632 72.6683 21.8691 72.0254 22.4616C71.3825 23.0415 70.6388 23.489 69.7942 23.8041C68.9496 24.1067 68.0546 24.2579 67.1091 24.2579H62.2685ZM65.0103 21.6107H66.6364C68.0231 21.6107 69.1387 21.2514 69.9833 20.5329C70.8405 19.8144 71.2691 18.7555 71.2691 17.3562C71.2691 16.4486 71.1178 15.7111 70.8153 15.1439C70.5253 14.564 70.1598 14.1165 69.7186 13.8013C69.29 13.4862 68.8488 13.2719 68.3949 13.1584C67.9411 13.0324 67.5566 12.9693 67.2415 12.9693H65.0103V21.6107ZM90.4366 13.7068C89.9072 13.4169 89.3651 13.1773 88.8105 12.9882C88.2684 12.7992 87.7579 12.7046 87.2788 12.7046C86.6864 12.7046 86.2199 12.8244 85.8796 13.0639C85.5392 13.3034 85.369 13.6627 85.369 14.1417C85.369 14.4694 85.4951 14.7657 85.7472 15.0304C86.0119 15.2825 86.346 15.5094 86.7494 15.7111C87.1654 15.9128 87.594 16.0956 88.0352 16.2595C88.5773 16.4612 89.1004 16.7196 89.6046 17.0347C90.1089 17.3373 90.5249 17.7596 90.8526 18.3016C91.1804 18.8311 91.3442 19.537 91.3442 20.4194C91.3442 21.1254 91.1615 21.7809 90.7959 22.386C90.4303 22.991 89.8946 23.4827 89.1886 23.8608C88.4827 24.2264 87.6129 24.4092 86.5792 24.4092C85.785 24.4092 84.972 24.2894 84.14 24.0499C83.3206 23.8104 82.5453 23.4322 81.8142 22.9154L83.0243 20.7787C83.5034 21.1317 84.0517 21.4216 84.6694 21.6485C85.2871 21.8754 85.8418 21.9889 86.3334 21.9889C86.6612 21.9889 86.9889 21.9447 87.3167 21.8565C87.657 21.7557 87.9343 21.5918 88.1486 21.3649C88.3756 21.138 88.489 20.8228 88.489 20.4194C88.489 20.0034 88.2873 19.6442 87.8839 19.3416C87.4931 19.0265 87.0204 18.7618 86.4658 18.5475C86.0372 18.3836 85.596 18.1945 85.1421 17.9802C84.6883 17.7659 84.2597 17.5075 83.8563 17.2049C83.4656 16.8898 83.1441 16.5053 82.892 16.0515C82.6525 15.5851 82.5327 15.0178 82.5327 14.3497C82.5327 13.5429 82.7092 12.8433 83.0622 12.2508C83.4277 11.6583 83.9383 11.1919 84.5938 10.8515C85.2493 10.4986 86.0056 10.3032 86.8628 10.2654C87.9848 10.2654 88.8924 10.3977 89.5857 10.6625C90.2917 10.9272 90.922 11.2423 91.4766 11.6079L90.4366 13.7068ZM93.084 10.341H102.463V12.9882H99.0781V24.2579H96.3363V12.9882H93.084V10.341ZM103.778 17.3184C103.778 16.3603 103.961 15.4527 104.326 14.5955C104.692 13.7383 105.196 12.9819 105.839 12.3264C106.494 11.6583 107.251 11.1352 108.108 10.757C108.965 10.3788 109.885 10.1897 110.869 10.1897C111.839 10.1897 112.753 10.3788 113.61 10.757C114.468 11.1352 115.224 11.6583 115.88 12.3264C116.548 12.9819 117.064 13.7383 117.43 14.5955C117.808 15.4527 117.997 16.3603 117.997 17.3184C117.997 18.3016 117.808 19.2219 117.43 20.0791C117.064 20.9363 116.548 21.6926 115.88 22.3481C115.224 22.991 114.468 23.4953 113.61 23.8608C112.753 24.2264 111.839 24.4092 110.869 24.4092C109.885 24.4092 108.965 24.2264 108.108 23.8608C107.251 23.4953 106.494 22.991 105.839 22.3481C105.196 21.6926 104.692 20.9363 104.326 20.0791C103.961 19.2219 103.778 18.3016 103.778 17.3184ZM106.614 17.3184C106.614 18.1378 106.803 18.8878 107.181 19.5685C107.572 20.2366 108.095 20.7724 108.751 21.1758C109.406 21.5666 110.144 21.762 110.963 21.762C111.757 21.762 112.47 21.5666 113.1 21.1758C113.743 20.7724 114.247 20.2366 114.613 19.5685C114.978 18.8878 115.161 18.1378 115.161 17.3184C115.161 16.4738 114.972 15.7174 114.594 15.0493C114.216 14.3686 113.705 13.8328 113.062 13.4421C112.419 13.0387 111.694 12.837 110.888 12.837C110.081 12.837 109.356 13.0387 108.713 13.4421C108.07 13.8328 107.56 14.3686 107.181 15.0493C106.803 15.7174 106.614 16.4738 106.614 17.3184ZM124.948 10.341C126.7 10.341 128.042 10.7696 128.975 11.6268C129.921 12.4714 130.393 13.6059 130.393 15.0304C130.393 15.8246 130.223 16.6061 129.883 17.3751C129.555 18.1441 128.994 18.7555 128.2 19.2093L131.433 24.2579H128.238L125.307 19.8333H123.473V24.2579H120.731V10.341H124.948ZM125.42 17.186C125.975 17.186 126.404 17.0726 126.706 16.8457C127.021 16.6061 127.242 16.3288 127.368 16.0137C127.494 15.6859 127.557 15.3897 127.557 15.125C127.557 14.9737 127.532 14.7846 127.481 14.5577C127.443 14.3182 127.355 14.0787 127.217 13.8391C127.078 13.5996 126.864 13.3979 126.574 13.2341C126.296 13.0702 125.918 12.9882 125.439 12.9882H123.473V17.186H125.42ZM133.694 10.341H143.186V12.9882H136.436V15.9569H142.411V18.6042H136.436V21.6107H143.451V24.2579H133.694V10.341ZM156.653 10.341C158.38 10.341 159.704 10.7696 160.624 11.6268C161.544 12.4714 162.004 13.6059 162.004 15.0304C162.004 15.5977 161.916 16.1712 161.74 16.7511C161.576 17.3184 161.305 17.8352 160.927 18.3016C160.561 18.7681 160.063 19.1462 159.433 19.4362C158.815 19.7135 158.052 19.8522 157.145 19.8522H155.178V24.2579H152.436V10.341H156.653ZM157.126 17.186C157.68 17.186 158.109 17.0663 158.412 16.8267C158.727 16.5746 158.947 16.2847 159.073 15.9569C159.2 15.6292 159.263 15.3456 159.263 15.106C159.263 14.9674 159.237 14.7846 159.187 14.5577C159.149 14.3182 159.061 14.0787 158.922 13.8391C158.784 13.5996 158.569 13.3979 158.279 13.2341C158.002 13.0702 157.624 12.9882 157.145 12.9882H155.178V17.186H157.126ZM161.466 24.2579L167.744 9.79265H167.895L174.173 24.2579H170.996L169.919 21.5351H165.305L164.17 24.2579H161.466ZM166.269 19.2282H169.011L167.668 15.8435L166.269 19.2282ZM188.663 24.8252L178.925 16.0326L178.981 24.2579H176.202V9.79265H176.315L186.034 18.7176L185.978 10.341H188.738V24.8252H188.663ZM192.322 10.341H201.815V12.9882H195.064V15.9569H201.039V18.6042H195.064V21.6107H202.079V24.2579H192.322V10.341ZM204.916 10.341H207.658V21.6107H214.2V24.2579H204.916V10.341Z" fill="#333333"/>
<path d="M18.9516 5.42052L10.8409 3.24727C7.89895 2.45897 5.72447 3.72259 4.93358 6.67422L2.25494 16.6711C1.45108 19.6711 2.7128 21.8139 5.65476 22.6022L13.7655 24.7755C16.7548 25.5765 18.8706 24.3386 19.6744 21.3386L22.3531 11.3418C23.1439 8.39013 21.941 6.22152 18.9516 5.42052Z" fill="url(#paint0_linear)"/>
<g opacity="0.5" filter="url(#filter0_f)">
<path d="M10.0025 13.7324C8.32852 13.5543 7.05859 12.1421 7.05859 10.4587V10.4587C7.05859 8.77532 8.32853 7.36312 10.0025 7.18505L12.4096 6.92898C14.5068 6.70589 16.3348 8.34972 16.3348 10.4587V10.4587C16.3348 12.5677 14.5068 14.2115 12.4096 13.9884L10.0025 13.7324Z" fill="#8A3730"/>
</g>
<g filter="url(#filter1_b)">
<path d="M25.2869 15.6218C25.2869 11.5418 22.8135 9.13867 18.6278 9.13867H7.6601C3.47338 9.13867 1 11.5418 1 15.6218V24.5081C1 28.5881 3.47338 31.0007 7.6601 31.0007H18.6321C22.8178 31.0007 25.2912 28.5881 25.2912 24.5081C25.2912 20.4281 25.2869 16.0726 25.2869 15.6218Z" fill="#CA6A52" fill-opacity="0.35"/>
<path d="M25.4356 15.6218C25.4356 13.5515 24.8073 11.8886 23.6307 10.7437C22.4545 9.59923 20.7487 8.98995 18.6278 8.98995H7.6601C5.53869 8.98995 3.83259 9.59922 2.65632 10.7437C1.47951 11.8886 0.851279 13.5515 0.851279 15.6218V24.5081C0.851279 26.5784 1.4795 28.2436 2.65621 29.3909C3.83242 30.5377 5.53853 31.1494 7.6601 31.1494H18.6321C20.7532 31.1494 22.459 30.5377 23.6351 29.3909C24.8117 28.2436 25.4399 26.5784 25.4399 24.5081C25.4399 22.4681 25.4388 20.3591 25.4377 18.7039C25.4372 17.8727 25.4366 17.156 25.4362 16.6198C25.4358 16.0881 25.4356 15.734 25.4356 15.6218Z" stroke="url(#paint1_linear)" stroke-width="0.297443" stroke-linecap="round" stroke-linejoin="round"/>
</g>
<g filter="url(#filter2_b)">
<path d="M16.5254 20.6146C16.8533 22.1 18.1606 23.145 19.6531 23.1179H26.3475C26.9685 23.1179 27.4722 22.6055 27.4722 21.9722V18.019C27.4709 17.3871 26.9685 16.8734 26.3475 16.8721H19.5332C17.8354 16.8775 16.4641 18.2813 16.4668 20.0113C16.4668 20.2138 16.4868 20.4162 16.5254 20.6146Z" fill="#CA6A52" fill-opacity="0.35"/>
<path d="M16.3795 20.6431L16.3794 20.6431L16.3802 20.6467C16.7228 22.1989 18.0899 23.2944 19.6544 23.2666H26.3475C27.0531 23.2666 27.6209 22.6851 27.6209 21.9722L27.6209 18.019L27.6209 18.0187C27.6194 17.3078 27.0535 16.7249 26.3478 16.7233H26.3475L19.5332 16.7233L19.5327 16.7233C17.7503 16.7291 16.3154 18.2021 16.3181 20.0114C16.3181 20.2236 16.339 20.4356 16.3795 20.6431Z" stroke="url(#paint2_linear)" stroke-width="0.297443" stroke-linecap="round" stroke-linejoin="round"/>
</g>
<g filter="url(#filter3_bd)">
<circle cx="19.59" cy="19.9952" r="1.33849" fill="url(#paint3_linear)"/>
<circle cx="19.59" cy="19.9952" r="1.30875" stroke="url(#paint4_linear)" stroke-opacity="0.5" stroke-width="0.0594886"/>
</g>
<g filter="url(#filter4_bd)">
<path d="M13.6152 15.6598H6.76508C6.25226 15.6577 5.83769 15.2503 5.83985 14.7503C5.84201 14.2524 6.2555 13.8493 6.76508 13.8472H13.6195C14.1323 13.8451 14.5512 14.2493 14.5534 14.7493C14.5555 15.2503 14.141 15.6577 13.6281 15.6598H13.6195H13.6152Z" fill="url(#paint5_linear)"/>
<path d="M13.6195 13.8769L13.6196 13.8769C14.1168 13.8749 14.5215 14.2666 14.5236 14.7494C14.5257 15.2333 14.1251 15.628 13.6281 15.6301H13.6195H13.6152H6.76514C6.26806 15.628 5.86751 15.2333 5.8696 14.7505C5.87168 14.2696 6.27124 13.879 6.76514 13.8769L13.6195 13.8769Z" stroke="url(#paint6_linear)" stroke-opacity="0.5" stroke-width="0.0594886"/>
</g>
<defs>
<filter id="filter0_f" x="1.10974" y="0.959834" width="21.1739" height="18.9978" filterUnits="userSpaceOnUse" color-interpolation-filters="sRGB">
<feFlood flood-opacity="0" result="BackgroundImageFix"/>
<feBlend mode="normal" in="SourceGraphic" in2="BackgroundImageFix" result="shape"/>
<feGaussianBlur stdDeviation="2.97443" result="effect1_foregroundBlur"/>
</filter>
<filter id="filter1_b" x="-6.43599" y="1.70256" width="39.1633" height="36.7342" filterUnits="userSpaceOnUse" color-interpolation-filters="sRGB">
<feFlood flood-opacity="0" result="BackgroundImageFix"/>
<feGaussianBlur in="BackgroundImage" stdDeviation="3.56931"/>
<feComposite in2="SourceAlpha" operator="in" result="effect1_backgroundBlur"/>
<feBlend mode="normal" in="SourceGraphic" in2="effect1_backgroundBlur" result="shape"/>
</filter>
<filter id="filter2_b" x="9.0308" y="9.43596" width="25.8775" height="21.1184" filterUnits="userSpaceOnUse" color-interpolation-filters="sRGB">
<feFlood flood-opacity="0" result="BackgroundImageFix"/>
<feGaussianBlur in="BackgroundImage" stdDeviation="3.56931"/>
<feComposite in2="SourceAlpha" operator="in" result="effect1_backgroundBlur"/>
<feBlend mode="normal" in="SourceGraphic" in2="effect1_backgroundBlur" result="shape"/>
</filter>
<filter id="filter3_bd" x="13.7898" y="14.1951" width="11.6003" height="11.6003" filterUnits="userSpaceOnUse" color-interpolation-filters="sRGB">
<feFlood flood-opacity="0" result="BackgroundImageFix"/>
<feGaussianBlur in="BackgroundImage" stdDeviation="2.23082"/>
<feComposite in2="SourceAlpha" operator="in" result="effect1_backgroundBlur"/>
<feColorMatrix in="SourceAlpha" type="matrix" values="0 0 0 0 0 0 0 0 0 0 0 0 0 0 0 0 0 0 127 0" result="hardAlpha"/>
<feOffset dx="1.48721" dy="1.48721"/>
<feGaussianBlur stdDeviation="1.48721"/>
<feColorMatrix type="matrix" values="0 0 0 0 0.15375 0 0 0 0 0.522433 0 0 0 0 0.9 0 0 0 0.5 0"/>
<feBlend mode="normal" in2="effect1_backgroundBlur" result="effect2_dropShadow"/>
<feBlend mode="normal" in="SourceGraphic" in2="effect2_dropShadow" result="shape"/>
</filter>
<filter id="filter4_bd" x="1.3782" y="9.38552" width="17.6368" height="10.7359" filterUnits="userSpaceOnUse" color-interpolation-filters="sRGB">
<feFlood flood-opacity="0" result="BackgroundImageFix"/>
<feGaussianBlur in="BackgroundImage" stdDeviation="2.23082"/>
<feComposite in2="SourceAlpha" operator="in" result="effect1_backgroundBlur"/>
<feColorMatrix in="SourceAlpha" type="matrix" values="0 0 0 0 0 0 0 0 0 0 0 0 0 0 0 0 0 0 127 0" result="hardAlpha"/>
<feOffset dx="1.48721" dy="1.48721"/>
<feGaussianBlur stdDeviation="1.48721"/>
<feColorMatrix type="matrix" values="0 0 0 0 0.15375 0 0 0 0 0.522433 0 0 0 0 0.9 0 0 0 0.5 0"/>
<feBlend mode="normal" in2="effect1_backgroundBlur" result="effect2_dropShadow"/>
<feBlend mode="normal" in="SourceGraphic" in2="effect2_dropShadow" result="shape"/>
</filter>
<linearGradient id="paint0_linear" x1="22.3596" y1="6.33368" x2="-0.342038" y2="13.2111" gradientUnits="userSpaceOnUse">
<stop stop-color="#CA6A52"/>
<stop offset="1" stop-color="#8A3730"/>
</linearGradient>
<linearGradient id="paint1_linear" x1="4.86676" y1="11.6856" x2="22.6054" y2="31.7633" gradientUnits="userSpaceOnUse">
<stop stop-color="white" stop-opacity="0.25"/>
<stop offset="1" stop-color="white" stop-opacity="0"/>
</linearGradient>
<linearGradient id="paint2_linear" x1="18.2187" y1="17.5998" x2="22.5615" y2="25.3943" gradientUnits="userSpaceOnUse">
<stop stop-color="white" stop-opacity="0.25"/>
<stop offset="1" stop-color="white" stop-opacity="0"/>
</linearGradient>
<linearGradient id="paint3_linear" x1="20.7387" y1="19.1401" x2="17.7567" y2="19.2374" gradientUnits="userSpaceOnUse">
<stop stop-color="white"/>
<stop offset="1" stop-color="white" stop-opacity="0.2"/>
</linearGradient>
<linearGradient id="paint4_linear" x1="18.5398" y1="19.5547" x2="20.813" y2="19.5673" gradientUnits="userSpaceOnUse">
<stop stop-color="white"/>
<stop offset="1" stop-color="white" stop-opacity="0"/>
</linearGradient>
<linearGradient id="paint5_linear" x1="13.9356" y1="14.1745" x2="4.45219" y2="15.6609" gradientUnits="userSpaceOnUse">
<stop stop-color="white"/>
<stop offset="1" stop-color="white" stop-opacity="0.2"/>
</linearGradient>
<linearGradient id="paint6_linear" x1="6.77848" y1="14.4552" x2="14.1725" y2="14.6514" gradientUnits="userSpaceOnUse">
<stop stop-color="white"/>
<stop offset="1" stop-color="white" stop-opacity="0"/>
</linearGradient>
</defs>
</svg>
